<svg xmlns="http://www.w3.org/2000/svg" xmlns:xlink="http://www.w3.org/1999/xlink" width="1385.697" height="652" viewBox="0 0 1385.697 652">
  <defs>
    <linearGradient id="linear-gradient" x1="0.5" x2="0.5" y2="0.483" gradientUnits="objectBoundingBox">
      <stop offset="0" stop-color="#f7f7fc"/>
      <stop offset="1" stop-color="#ced0d9"/>
    </linearGradient>
    <filter id="Path_247" x="0" y="0" width="1385.697" height="652" filterUnits="userSpaceOnUse">
      <feOffset dy="-3" input="SourceAlpha"/>
      <feGaussianBlur stdDeviation="3" result="blur"/>
      <feFlood flood-opacity="0.161"/>
      <feComposite operator="in" in2="blur"/>
      <feComposite in="SourceGraphic"/>
    </filter>
  </defs>
  <g transform="matrix(1, 0, 0, 1, 0, 0)" filter="url(#Path_247)">
    <path id="Path_247-2" data-name="Path 247" d="M0,400.132a34.758,34.758,0,0,1,19.907,2.106,16.015,16.015,0,0,0,17.111-3.04c12.432-11,37.969-25.659,66.972,3.184,4.429,4.4,10.217,6.035,15.744,4.531a58.749,58.749,0,0,1,35.187,1.3,15.889,15.889,0,0,0,15.626-2.767c12.034-9.721,38.014-24.358,66.413-.606,4.713,3.942,10.557,5.182,15.987,3.152,7.694-2.877,19.891-5.583,33.406-1.526,6.215,1.866,12.788-.453,17.358-6.046,11.65-14.255,36.5-35.113,67.823-6.6a15.943,15.943,0,0,0,17.231,3.242c11.483-4.785,32.051-9.06,52.551,8.046a15.72,15.72,0,0,0,15.6,3.035,59.67,59.67,0,0,1,40.215.279,15.746,15.746,0,0,0,15.38-2.95c12.842-10.357,41.662-26.177,72.461,6.443,4.118,4.362,9.467,6.5,14.813,5.6a73.94,73.94,0,0,1,28.724.957,16.107,16.107,0,0,0,14.271-3.731c12.3-10.5,41.154-28.679,73-3.61a15.8,15.8,0,0,0,14.652,2.8c11.36-3.486,33.427-6.794,56.318,8.81a15.375,15.375,0,0,0,12.442,2.335c8.529-2.072,24.173-4.431,40.863.218a15.387,15.387,0,0,0,10.427-.716,87.137,87.137,0,0,1,49.959-5.631,16.191,16.191,0,0,0,14.012-4.356c12.462-11.522,42.962-32.348,76.995-1.119a16.17,16.17,0,0,0,13.852,4.346c8.57-1.511,22.817-2.9,35.618,1.082a15.619,15.619,0,0,0,14.18-2.494c10.3-7.634,31.628-19.032,56.748-7.351a15.292,15.292,0,0,0,14.792-.977c12.719-7.916,40.785-19.455,70.745,6.839a15.964,15.964,0,0,0,13.8,3.993c7.944-1.606,20.811-3.27,32.6-.61a15.844,15.844,0,0,0,13.825-3.592c9.555-8.013,30.026-19.77,59.4-7.907a15.866,15.866,0,0,0,15.4-1.888c7.128-5.025,19.276-11,34.092-7.907l1.2,616.606H.7Z" transform="translate(9 -367.61)" fill="url(#linear-gradient)"/>
  </g>
</svg>
