<svg xmlns="http://www.w3.org/2000/svg" xmlns:xlink="http://www.w3.org/1999/xlink" width="1458" height="792.781" viewBox="0 0 1458 792.781">
  <defs>
    <filter id="Path_248" x="0" y="0" width="1458" height="792.781" filterUnits="userSpaceOnUse">
      <feOffset dy="3" input="SourceAlpha"/>
      <feGaussianBlur stdDeviation="3" result="blur"/>
      <feFlood flood-opacity="0.161"/>
      <feComposite operator="in" in2="blur"/>
      <feComposite in="SourceGraphic"/>
    </filter>
  </defs>
  <g transform="matrix(1, 0, 0, 1, 0, 0)" filter="url(#Path_248)">
    <path id="Path_248-2" data-name="Path 248" d="M3018.5,18V765a57.275,57.275,0,0,1-35.924-6.32,21.284,21.284,0,0,0-16.228-1.5c-30.95,9.47-52.521.08-62.595-6.32a20.714,20.714,0,0,0-14.563-2.87c-12.424,2.13-25.987.8-34.354-.48a20.637,20.637,0,0,0-14.542,3.18c-31.572,21.01-61.151,11.79-74.556,5.47a20.629,20.629,0,0,0-15.585-.78c-26.471,9.33-48.948.22-59.8-5.87a20.833,20.833,0,0,0-14.943-2c-13.488,3.19-28.5,2.07-37.536.87a20.8,20.8,0,0,0-14.595,3.47c-35.861,24.94-68,8.31-81.131-.89a20.773,20.773,0,0,0-14.764-3.48c-12.015,1.65-20.945,5.916-29.906,6.774-30.838.388-30.076-12.614-33.732-11.844-17.588,3.71-34.069,1.83-43.058.17-4.468-.82-8.374,3.844-12.368,5.914-24.132,12.46-48.119,5.776-60.09,2.986a20.979,20.979,0,0,0-15.448,2.24c-33.563,20.02-63.965,5.5-76.926-2.89a21.018,21.018,0,0,0-15.038-2.98,102.6,102.6,0,0,1-30.275.77,20.827,20.827,0,0,0-15.607,4.47c-32.457,26.05-62.827,13.42-76.357,5.15a20.825,20.825,0,0,0-16.208-2.36,81.944,81.944,0,0,1-42.373.23,20.732,20.732,0,0,0-16.439,2.42c-21.6,13.66-43.279,10.25-55.376,6.43a20.983,20.983,0,0,0-18.167,2.58c-33,22.77-59.191,6.12-71.468-5.27a20.39,20.39,0,0,0-18.294-4.83,71.874,71.874,0,0,1-35.2-1.22,20.94,20.94,0,0,0-16.85,2.52c-29.927,18.97-57.3,7.28-69.982-.48a21.074,21.074,0,0,0-16.471-2.21,80.985,80.985,0,0,1-37.083,1.03,20.693,20.693,0,0,0-16.587,3.62c-30.56,23.04-57.474,11.34-70.572,2.55a21.107,21.107,0,0,0-18.03-2.43,47.75,47.75,0,0,1-20.981,1.68V20.5a47.75,47.75,0,0,1,20.981,1.68,21.107,21.107,0,0,0,18.03-2.43c13.1-8.79,40.012-20.49,70.572,2.55a20.693,20.693,0,0,0,16.587,3.62,80.985,80.985,0,0,1,37.083,1.03,21.074,21.074,0,0,0,16.471-2.21c12.677-7.76,40.054-19.45,69.982-.48a20.94,20.94,0,0,0,16.85,2.52,71.874,71.874,0,0,1,35.2-1.22,20.39,20.39,0,0,0,18.294-4.83c12.277-11.39,38.463-28.04,71.468-5.27a20.983,20.983,0,0,0,18.167,2.58c12.1-3.82,33.774-7.23,55.376,6.43A20.732,20.732,0,0,0,2060,26.89a81.945,81.945,0,0,1,42.373.23,20.824,20.824,0,0,0,16.208-2.36c13.531-8.27,43.9-20.9,76.357,5.15a20.827,20.827,0,0,0,15.607,4.47,102.6,102.6,0,0,1,30.275.77,21.018,21.018,0,0,0,15.038-2.98c12.961-8.39,43.363-22.91,76.926-2.89a20.979,20.979,0,0,0,15.448,2.24c11.971-2.79,35.218-5.43,59.349,7.03,3.994,2.07,8.641,4.69,13.109,3.87,5.213-.963,9.215-7.67,22.115-6.9,13.13-.114,13.556,5.512,20.943,7.07,3.656.77,7.46-1.39,10.991-2.57a118.7,118.7,0,0,1,52.647-4.5,20.773,20.773,0,0,0,14.764-3.48c13.13-9.2,45.271-25.83,81.131-.89a20.8,20.8,0,0,0,14.595,3.47c9.031-1.2,24.047-2.32,37.536.87a20.834,20.834,0,0,0,14.943-2c10.854-6.09,33.331-15.2,59.8-5.87a20.629,20.629,0,0,0,15.585-.78c13.4-6.32,42.984-15.54,74.556,5.47a20.637,20.637,0,0,0,14.542,3.18c8.367-1.28,21.929-2.61,34.354-.48a20.714,20.714,0,0,0,14.563-2.87c10.074-6.4,31.645-15.79,62.595-6.32a21.284,21.284,0,0,0,16.228-1.5A57.275,57.275,0,0,1,3018.5,18Z" transform="translate(-1569.5 1.89)" fill="#dee0eb"/>
  </g>
</svg>
